<svg width="16" height="18" viewBox="0 0 16 18" fill="none" xmlns="http://www.w3.org/2000/svg">
<path d="M12.7356 16.9004C13.3451 16.9004 13.9071 16.5717 14.2059 16.0405V16.0405C14.5219 15.4788 14.4872 14.7853 14.0194 14.3421C13.0128 13.3884 10.8978 11.9004 7.5 11.9004C4.10834 11.9004 2.09708 13.383 1.1541 14.3369C0.709456 14.7867 0.69264 15.4651 1.00271 16.0163V16.0163" stroke="#131214" stroke-width="1.5" stroke-linecap="round" stroke-linejoin="round"/>
<path d="M7.61111 8.0115C9.57479 8.0115 11.1667 6.41963 11.1667 4.45595C11.1667 2.49227 9.57479 0.900391 7.61111 0.900391C5.64743 0.900391 4.05556 2.49227 4.05556 4.45595C4.05556 6.41963 5.64743 8.0115 7.61111 8.0115Z" stroke="#131214" stroke-width="1.5" stroke-linecap="round" stroke-linejoin="round"/>
</svg>
