<svg width="19" height="18" viewBox="0 0 19 18" fill="none" xmlns="http://www.w3.org/2000/svg">
<path d="M16.5 16.9004H17.5M13.5 16.9004H11.5V13.9004M14.5 13.9004H17.5V10.9004H16.5M11.5 10.9004H13.5M1.5 13.9001C1.5 12.9682 1.5 12.5023 1.65224 12.1348C1.85523 11.6447 2.24432 11.2556 2.73438 11.0526C3.10192 10.9004 3.56786 10.9004 4.49974 10.9004C5.43163 10.9004 5.89808 10.9004 6.26562 11.0526C6.75568 11.2556 7.14467 11.6447 7.34766 12.1348C7.4999 12.5023 7.4999 12.9685 7.4999 13.9004C7.4999 14.8323 7.4999 15.2982 7.34766 15.6658C7.14467 16.1558 6.75568 16.5451 6.26562 16.748C5.89808 16.9003 5.43162 16.9003 4.49974 16.9003C3.56786 16.9003 3.10192 16.9003 2.73438 16.748C2.24432 16.5451 1.85523 16.1561 1.65224 15.666C1.5 15.2985 1.5 14.832 1.5 13.9001ZM11.5 3.90013C11.5 2.96825 11.5 2.50231 11.6522 2.13477C11.8552 1.64471 12.2443 1.25562 12.7344 1.05263C13.1019 0.900391 13.5679 0.900391 14.4997 0.900391C15.4316 0.900391 15.8981 0.900391 16.2656 1.05263C16.7557 1.25562 17.1447 1.64471 17.3477 2.13477C17.4999 2.50231 17.4999 2.96851 17.4999 3.90039C17.4999 4.83227 17.4999 5.29822 17.3477 5.66576C17.1447 6.15581 16.7557 6.54506 16.2656 6.74805C15.8981 6.90029 15.4316 6.90029 14.4997 6.90029C13.5679 6.90029 13.1019 6.90029 12.7344 6.74805C12.2443 6.54506 11.8552 6.15607 11.6522 5.66602C11.5 5.29847 11.5 4.83202 11.5 3.90013ZM1.5 3.90013C1.5 2.96825 1.5 2.50231 1.65224 2.13477C1.85523 1.64471 2.24432 1.25562 2.73438 1.05263C3.10192 0.900391 3.56786 0.900391 4.49974 0.900391C5.43163 0.900391 5.89808 0.900391 6.26562 1.05263C6.75568 1.25562 7.14467 1.64471 7.34766 2.13477C7.4999 2.50231 7.4999 2.96851 7.4999 3.90039C7.4999 4.83227 7.4999 5.29822 7.34766 5.66576C7.14467 6.15581 6.75568 6.54506 6.26562 6.74805C5.89808 6.90029 5.43162 6.90029 4.49974 6.90029C3.56786 6.90029 3.10192 6.90029 2.73438 6.74805C2.24432 6.54506 1.85523 6.15607 1.65224 5.66602C1.5 5.29847 1.5 4.83202 1.5 3.90013Z" stroke="black" stroke-width="1.5" stroke-linecap="round" stroke-linejoin="round"/>
</svg>
